<svg preserveAspectRatio="none" width="100%" height="100%" overflow="visible" style="display: block;" viewBox="0 0 48 48" fill="none" xmlns="http://www.w3.org/2000/svg">
<g id="Link w-10 h-10 rounded-full bg-white/5 flex items-center justify-center hover:bg-primary transition-all">
<path d="M24 0.5C36.9787 0.5 47.5 11.0213 47.5 24C47.5 36.9787 36.9787 47.5 24 47.5C11.0213 47.5 0.5 36.9787 0.5 24C0.5 11.0213 11.0213 0.5 24 0.5Z" stroke="var(--stroke-0, #D7D7D7)"/>
<g id="Group">
<g id="Vector">
</g>
</g>
<path id="Vector_2" d="M17.8269 15.3344C17.8265 15.9532 17.572 16.5465 17.1191 16.9839C16.6663 17.4212 16.0523 17.6667 15.4122 17.6664C14.7721 17.6661 14.1584 17.42 13.706 16.9822C13.2536 16.5444 12.9997 15.9508 13 15.332C13.0003 14.7132 13.2549 14.1199 13.7077 13.6826C14.1606 13.2452 14.7746 12.9997 15.4146 13C16.0547 13.0003 16.6685 13.2464 17.1208 13.6842C17.5732 14.122 17.8272 14.7156 17.8269 15.3344ZM17.8993 19.3941H13.0724V34H17.8993V19.3941ZM25.5257 19.3941H20.723V34H25.4774V26.3354C25.4774 22.0657 31.2335 21.669 31.2335 26.3354V34H36V24.7488C36 17.5509 27.4806 17.8192 25.4774 21.354L25.5257 19.3941Z" fill="var(--fill-0, #818181)"/>
</g>
</svg>
