<svg preserveAspectRatio="none" width="100%" height="100%" overflow="visible" style="display: block;" viewBox="0 0 48 48" fill="none" xmlns="http://www.w3.org/2000/svg">
<g id="Link w-10 h-10 rounded-full bg-white/5 flex items-center justify-center hover:bg-primary transition-all">
<path d="M24 0.5C36.9787 0.5 47.5 11.0213 47.5 24C47.5 36.9787 36.9787 47.5 24 47.5C11.0213 47.5 0.5 36.9787 0.5 24C0.5 11.0213 11.0213 0.5 24 0.5Z" stroke="var(--stroke-0, #D7D7D7)"/>
<path id="Vector" d="M18.7007 16C19.4787 16 20.1888 16.0671 20.831 16.2013C21.4724 16.3355 22.0225 16.5559 22.4812 16.8625C22.9392 17.1697 23.2942 17.5769 23.5463 18.0841C23.7992 18.5927 23.9256 19.2203 23.9256 19.9669C23.9256 20.7735 23.7381 21.4456 23.3632 21.9832C22.989 22.5207 22.4353 22.9615 21.7021 23.3055C22.7098 23.5894 23.4622 24.086 23.9592 24.7952C24.4562 25.5043 24.7046 26.3597 24.7046 27.3614C24.7046 28.1673 24.5439 28.8659 24.2225 29.4571C23.9149 30.0323 23.4713 30.5274 22.9287 30.9012C22.3862 31.2756 21.7672 31.5522 21.0715 31.7309C20.3724 31.9109 19.6523 32.0014 18.9294 32H11V16H18.7007ZM18.2413 22.4769C18.8828 22.4769 19.4101 22.3272 19.8233 22.0277C20.235 21.7296 20.4409 21.2443 20.4409 20.5719C20.4409 20.1975 20.3723 19.8913 20.235 19.6533C20.1062 19.4217 19.9166 19.2278 19.6857 19.0917C19.4411 18.9534 19.1732 18.8587 18.8947 18.812C18.588 18.7598 18.2774 18.7336 17.9661 18.7336H14.5974V22.4769H18.2413ZM18.4472 29.2664C18.799 29.2664 19.1352 29.2325 19.456 29.1647C19.7767 29.0976 20.0595 28.9856 20.3044 28.8288C20.5485 28.672 20.7432 28.459 20.8884 28.1899C21.0329 27.9215 21.1051 27.5779 21.1051 27.159C21.1051 26.3382 20.8685 25.7519 20.3954 25.4002C19.9223 25.0491 19.296 24.8736 18.5165 24.8736H14.5974V29.2653L18.4472 29.2664ZM29.2317 28.9295C29.7207 29.3935 30.4236 29.6252 31.3403 29.6245C31.9976 29.6245 32.5629 29.4638 33.036 29.1424C33.5092 28.8224 33.7995 28.4827 33.9072 28.1232H36.7721C36.3134 29.5133 35.6105 30.5068 34.6635 31.1036C33.7157 31.7012 32.5697 32 31.2254 32C30.2936 32 29.4535 31.8541 28.7051 31.5624C27.9844 31.2914 27.3344 30.8668 26.8024 30.3196C26.2722 29.7634 25.863 29.1077 25.5997 28.3923C25.3172 27.6457 25.176 26.8238 25.176 25.9268C25.176 25.0608 25.3212 24.2545 25.6116 23.5078C25.8865 22.7867 26.3073 22.1273 26.849 21.5689C27.3923 21.0187 28.043 20.5806 28.7625 20.2805C29.5029 19.9669 30.3239 19.8101 31.2254 19.8101C32.2331 19.8101 33.1119 20.0008 33.8617 20.3822C34.6093 20.7629 35.224 21.2743 35.7059 21.9164C36.1869 22.5592 36.5348 23.291 36.7493 24.1118C36.9653 24.9537 37.0424 25.8239 36.9779 26.6896H28.4309C28.4772 27.7202 28.7434 28.4668 29.2317 28.9295ZM32.9114 22.835C32.5213 22.4169 31.929 22.2078 31.1344 22.2078C30.615 22.2078 30.1838 22.2936 29.8406 22.4653C29.5386 22.6062 29.2703 22.8077 29.0532 23.0567C28.8361 23.3057 28.675 23.5966 28.5805 23.9105C28.5027 24.1587 28.4525 24.4145 28.4309 24.6733H33.7251C33.572 23.866 33.3008 23.2532 32.9114 22.835ZM27.8751 16.8127H34.489V18.6054H27.8751V16.8127Z" fill="var(--fill-0, #818181)"/>
</g>
</svg>
