<svg preserveAspectRatio="none" width="100%" height="100%" overflow="visible" style="display: block;" viewBox="0 0 48 48" fill="none" xmlns="http://www.w3.org/2000/svg">
<g id="Link w-10 h-10 rounded-full bg-white/5 flex items-center justify-center hover:bg-primary transition-all">
<path d="M24 0.5C36.9787 0.5 47.5 11.0213 47.5 24C47.5 36.9787 36.9787 47.5 24 47.5C11.0213 47.5 0.5 36.9787 0.5 24C0.5 11.0213 11.0213 0.5 24 0.5Z" stroke="var(--stroke-0, #D7D7D7)"/>
<path d="M34.875 19.8587C34.6125 18.8712 33.84 18.0987 32.8525 17.8362C31.0762 17.3637 24 17.3637 24 17.3637C24 17.3637 16.9237 17.3637 15.1475 17.8362C14.16 18.0987 13.3875 18.8712 13.125 19.8587C12.6525 21.635 12.6525 24.0012 12.6525 24.0012C12.6525 24.0012 12.6525 26.3675 13.125 28.1437C13.3875 29.1312 14.16 29.9037 15.1475 30.1662C16.9237 30.6387 24 30.6387 24 30.6387C24 30.6387 31.0762 30.6387 32.8525 30.1662C33.84 29.9037 34.6125 29.1312 34.875 28.1437C35.3475 26.3675 35.3475 24.0012 35.3475 24.0012C35.3475 24.0012 35.3475 21.635 34.875 19.8587ZM21.6894 27.7106V20.2919L28.0975 24.0012L21.6894 27.7106Z" fill="var(--fill-0, #818181)"/>
</g>
</svg>
