<svg preserveAspectRatio="none" width="100%" height="100%" overflow="visible" style="display: block;" viewBox="0 0 48 48" fill="none" xmlns="http://www.w3.org/2000/svg">
<g id="Link w-10 h-10 rounded-full bg-white/5 flex items-center justify-center hover:bg-primary transition-all">
<path d="M24 0.5C36.9787 0.5 47.5 11.0213 47.5 24C47.5 36.9787 36.9787 47.5 24 47.5C11.0213 47.5 0.5 36.9787 0.5 24C0.5 11.0213 11.0213 0.5 24 0.5Z" stroke="var(--stroke-0, #D7D7D7)"/>
<path id="Vector" d="M23.5012 20.05C22.5862 20.05 21.7086 20.4135 21.0616 21.0605C20.4146 21.7075 20.0512 22.585 20.0512 23.5C20.0512 24.415 20.4146 25.2925 21.0616 25.9395C21.7086 26.5865 22.5862 26.95 23.5012 26.95C24.4161 26.95 25.2937 26.5865 25.9407 25.9395C26.5877 25.2925 26.9512 24.415 26.9512 23.5C26.9512 22.585 26.5877 21.7075 25.9407 21.0605C25.2937 20.4135 24.4161 20.05 23.5012 20.05ZM23.5012 17.75C25.0261 17.75 26.4887 18.3558 27.567 19.4341C28.6453 20.5125 29.2511 21.975 29.2511 23.5C29.2511 25.025 28.6453 26.4875 27.567 27.5659C26.4887 28.6442 25.0261 29.25 23.5012 29.25C21.9762 29.25 20.5136 28.6442 19.4353 27.5659C18.357 26.4875 17.7511 25.025 17.7511 23.5C17.7511 21.975 18.357 20.5125 19.4353 19.4341C20.5136 18.3558 21.9762 17.75 23.5012 17.75ZM30.9761 17.4625C30.9761 17.8437 30.8247 18.2094 30.5551 18.479C30.2855 18.7485 29.9199 18.9 29.5386 18.9C29.1574 18.9 28.7918 18.7485 28.5222 18.479C28.2526 18.2094 28.1011 17.8437 28.1011 17.4625C28.1011 17.0813 28.2526 16.7156 28.5222 16.446C28.7918 16.1765 29.1574 16.025 29.5386 16.025C29.9199 16.025 30.2855 16.1765 30.5551 16.446C30.8247 16.7156 30.9761 17.0813 30.9761 17.4625ZM23.5012 14.3C20.6561 14.3 20.1914 14.3081 18.8678 14.3667C17.9662 14.4093 17.3613 14.53 16.8001 14.7485C16.3307 14.9214 15.9062 15.1977 15.5581 15.5569C15.1985 15.905 14.9218 16.3294 14.7485 16.7989C14.53 17.3624 14.4092 17.9662 14.3678 18.8667C14.308 20.1363 14.3 20.5801 14.3 23.5C14.3 26.3462 14.3081 26.8097 14.3667 28.1333C14.4093 29.0338 14.53 29.6398 14.7473 30.1999C14.9428 30.7001 15.1729 31.0601 15.5547 31.4419C15.9422 31.8283 16.3021 32.0594 16.7966 32.2503C17.3647 32.47 17.9697 32.5919 18.8667 32.6333C20.1363 32.6931 20.5801 32.7 23.5 32.7C26.3462 32.7 26.8097 32.6919 28.1333 32.6333C29.0326 32.5907 29.6375 32.47 30.1999 32.2526C30.6693 32.0797 31.0938 31.8034 31.4419 31.4442C31.8294 31.0578 32.0606 30.6978 32.2515 30.2022C32.47 29.6364 32.5919 29.0315 32.6333 28.1322C32.6931 26.8637 32.7 26.4187 32.7 23.5C32.7 20.6549 32.6919 20.1903 32.6333 18.8667C32.5907 17.9674 32.4689 17.3601 32.2515 16.7989C32.0786 16.3296 31.8023 15.9051 31.443 15.5569C31.095 15.1973 30.6705 14.9206 30.201 14.7473C29.6375 14.5288 29.0326 14.4081 28.1333 14.3667C26.8649 14.3069 26.421 14.3 23.5 14.3M23.5 12C26.6245 12 27.0144 12.0115 28.2414 12.069C29.465 12.1265 30.2999 12.3186 31.0325 12.6038C31.7915 12.8959 32.4309 13.2914 33.0703 13.9297C33.6553 14.5044 34.1078 15.1998 34.3962 15.9675C34.6803 16.7 34.8735 17.5349 34.931 18.7597C34.9851 19.9856 35 20.3754 35 23.5C35 26.6245 34.9885 27.0144 34.931 28.2403C34.8735 29.4662 34.6803 30.2988 34.3962 31.0325C34.1078 31.8002 33.6553 32.4956 33.0703 33.0703C32.4956 33.6553 31.8002 34.1078 31.0325 34.3962C30.2999 34.6803 29.465 34.8735 28.2414 34.931C27.0144 34.9851 26.6245 35 23.5 35C20.3754 35 19.9856 34.9885 18.7585 34.931C17.5349 34.8735 16.7012 34.6803 15.9675 34.3962C15.1998 34.1078 14.5044 33.6553 13.9297 33.0703C13.3447 32.4956 12.8922 31.8002 12.6038 31.0325C12.3186 30.2999 12.1265 29.465 12.069 28.2403C12.0138 27.0144 12 26.6245 12 23.5C12 20.3754 12.0115 19.9856 12.069 18.7597C12.1265 17.5338 12.3186 16.7012 12.6038 15.9675C12.8922 15.1998 13.3447 14.5044 13.9297 13.9297C14.5044 13.3447 15.1998 12.8922 15.9675 12.6038C16.7 12.3186 17.5338 12.1265 18.7585 12.069C19.9867 12.0149 20.3766 12 23.5012 12" fill="var(--fill-0, #818181)"/>
</g>
</svg>
